<?xml version="1.0" encoding="utf-8"?>
<svg viewBox="13.252 1.325 715.136 572.505" width="715.136px" height="572.505px" fill="none" xmlns="http://www.w3.org/2000/svg">
  <defs>
    <filter id="filter0_b_141_2" x="-190.027" y="-194" width="1626.05" height="1242" filterUnits="userSpaceOnUse" color-interpolation-filters="sRGB">
      <feFlood flood-opacity="0" result="BackgroundImageFix"/>
      <feGaussianBlur in="BackgroundImageFix" stdDeviation="100"/>
      <feComposite in2="SourceAlpha" operator="in" result="effect1_backgroundBlur_141_2"/>
      <feBlend mode="normal" in="SourceGraphic" in2="effect1_backgroundBlur_141_2" result="shape"/>
    </filter>
    <radialGradient id="paint0_radial_141_2" cx="0" cy="0" r="1" gradientUnits="userSpaceOnUse" gradientTransform="translate(623 427) rotate(90) scale(421 623)">
      <stop offset="0.5938" stop-color="#FFF388"/>
      <stop offset="0.7969" stop-color="#FDEC53" stop-opacity="0"/>
      <stop offset="0.9219" stop-color="#FDEC53" stop-opacity="0"/>
    </radialGradient>
    <clipPath id="clip0_141_2">
      <rect width="606" height="656" fill="white" transform="translate(379)"/>
    </clipPath>
  </defs>
  <g filter="url(#filter0_b_141_2)" transform="matrix(0.761121, 0, 0, 0.796964, -107.612747, -5.407997)" style="">
    <path d="M254.864 25.7106C258.497 13.9898 269.338 6 281.609 6H1208.01C1226.87 6 1240.34 24.2724 1234.75 42.2894L991.136 828.289C987.503 840.01 976.662 848 964.391 848H37.9925C19.1299 848 5.66341 829.728 11.2477 811.711L254.864 25.7106Z" fill="url(#paint0_radial_141_2)" fill-opacity="0.75"/>
  </g>
  <g clip-path="url(#clip0_141_2)" transform="matrix(0.844732, 0, 0, 0.795961, -194.274872, 13.252426)" style="">
    <path d="M953.288 611.28C953.288 635.977 824.731 656 666.144 656C507.557 656 379 635.977 379 611.28C379 593.796 443.441 578.649 537.355 571.302C576.083 568.263 619.84 566.56 666.144 566.56C685.179 566.56 703.778 566.849 721.766 567.397C853.732 571.436 953.288 589.545 953.288 611.28Z" fill="#3F3D56"/>
    <path opacity="0.1" d="M629.093 620.416C689.969 620.416 739.319 614.173 739.319 606.472C739.319 598.77 689.969 592.527 629.093 592.527C568.217 592.527 518.867 598.77 518.867 606.472C518.867 614.173 568.217 620.416 629.093 620.416Z" fill="black"/>
    <path d="M628.63 616.57C686.181 616.57 732.835 564.901 732.835 501.164C732.835 437.427 686.181 385.758 628.63 385.758C571.079 385.758 524.425 437.427 524.425 501.164C524.425 564.901 571.079 616.57 628.63 616.57Z" fill="#3F3D56"/>
    <path d="M661.513 569.445H596.674V630.995H661.513V569.445Z" fill="#80EFA3"/>
    <path d="M746.266 584.353L742.561 605.51L766.644 609.357L782.391 599.74L781.464 584.353H746.266Z" fill="#575A89"/>
    <path d="M624.925 187.163C624.925 187.163 623.072 209.283 618.441 210.244C613.81 211.206 628.63 249.675 628.63 249.675H650.86L668.46 244.866L660.123 223.708C660.123 223.708 649.008 208.321 657.344 195.819C665.681 183.316 624.925 187.163 624.925 187.163Z" fill="#A0616A"/>
    <path opacity="0.1" d="M624.925 187.163C624.925 187.163 623.072 209.283 618.441 210.244C613.81 211.206 628.63 249.675 628.63 249.675H650.86L668.46 244.866L660.123 223.708C660.123 223.708 649.008 208.321 657.344 195.819C665.681 183.316 624.925 187.163 624.925 187.163Z" fill="black"/>
    <path d="M578.611 356.425C578.611 356.425 554.528 404.511 573.98 414.128C593.432 423.745 598.063 422.784 598.063 425.669C598.063 428.554 594.358 427.592 596.211 432.401C598.063 437.209 592.505 456.444 598.063 467.984C603.621 479.525 601.768 488.18 601.768 488.18C601.768 488.18 601.768 489.142 603.621 492.989C605.473 496.836 606.399 499.721 605.473 501.644C604.547 503.568 598.989 516.07 604.547 518.955C610.105 521.841 638.819 523.764 641.598 518.955C644.377 514.147 638.819 511.262 641.598 508.376C644.377 505.491 646.229 504.53 644.377 502.606C642.524 500.683 640.672 476.64 640.672 476.64C640.672 476.64 645.303 448.75 643.45 444.903C641.598 441.056 638.819 437.209 640.672 434.324C642.524 431.439 644.377 432.401 645.303 428.554C646.229 424.707 648.082 416.052 648.082 416.052L658.271 415.09L682.354 419.899C682.354 419.899 709.216 450.673 738.856 460.291C738.856 460.291 747.193 468.946 749.971 468.946C752.75 468.946 752.75 468.946 751.824 470.87C750.898 472.793 748.119 472.793 749.971 474.716C751.824 476.64 754.603 473.755 752.75 476.64C750.898 479.525 749.045 479.525 750.898 481.448C752.75 483.372 749.971 493.951 749.971 494.912C749.971 495.874 741.635 586.276 744.414 588.199C747.193 590.122 786.096 595.893 788.875 588.199C791.654 580.505 787.022 570.888 787.022 570.888C787.022 570.888 800.916 455.482 797.211 447.788C793.506 440.095 780.538 405.473 711.068 383.353C711.068 383.353 691.616 379.506 691.616 376.621C691.616 373.736 689.764 355.464 686.059 354.502C682.354 353.54 661.049 352.578 661.049 352.578L634.188 361.234L597.137 354.502L578.611 356.425Z" fill="#2F2E41"/>
    <path d="M611.031 517.994L606.399 535.305C606.399 535.305 602.694 563.194 607.326 569.926C610.964 575.214 617.459 581.689 629.505 582.825C632.881 583.147 636.261 582.262 639.087 580.318C641.913 578.374 644.016 575.486 645.046 572.133C645.184 571.732 645.271 571.313 645.303 570.888C645.303 568.965 642.524 545.883 642.524 545.883L637.893 521.841L636.966 515.109L611.031 517.994Z" fill="#2F2E41"/>
    <path d="M746.266 600.701C746.266 600.701 741.635 595.893 740.709 600.701C739.782 605.51 736.077 625.706 742.561 626.668C749.045 627.629 811.105 637.247 817.589 633.4C824.073 629.553 836.115 623.783 828.704 620.897C821.294 618.012 799.99 609.357 799.99 609.357C799.99 609.357 787.948 593.008 786.096 592.046C784.243 591.084 774.054 593.008 769.423 596.854C764.792 600.701 746.266 600.701 746.266 600.701Z" fill="#2F2E41"/>
    <path d="M647.155 207.359C663.014 207.359 675.87 194.011 675.87 177.546C675.87 161.081 663.014 147.733 647.155 147.733C631.297 147.733 618.441 161.081 618.441 177.546C618.441 194.011 631.297 207.359 647.155 207.359Z" fill="#A0616A"/>
    <path d="M644.377 244.866L633.261 232.364L620.941 207.359C620.941 207.359 611.957 204.474 610.105 209.283C608.252 214.091 574.906 229.479 574.906 229.479C574.906 229.479 583.243 310.263 579.538 317.957C575.833 325.65 569.349 356.425 574.906 359.31C580.464 362.196 606.399 359.31 614.736 363.157C623.072 367.004 647.155 367.004 653.639 362.196C660.123 357.387 661.976 353.54 668.46 356.425C673.979 358.881 686.884 274.909 690.599 249.885C690.912 247.784 690.652 245.633 689.849 243.677C689.045 241.72 687.73 240.037 686.053 238.816C677.742 232.763 662.773 222.333 660.123 223.708C656.418 225.632 644.377 244.866 644.377 244.866Z" fill="#575A89"/>
    <path d="M684.206 241.019C686.381 241.584 688.338 242.826 689.813 244.579C691.289 246.331 692.212 248.511 692.46 250.825L699.953 320.842C699.953 320.842 681.427 362.196 672.165 334.306C662.902 306.416 684.206 241.019 684.206 241.019Z" fill="#575A89"/>
    <path d="M682.353 327.574L702.731 321.803C702.731 321.803 706.436 348.732 710.142 348.732C713.847 348.732 697.174 364.119 688.837 362.196C680.501 360.272 668.459 353.54 667.533 348.732C666.607 343.923 675.87 323.727 675.87 323.727L682.353 327.574Z" fill="#575A89"/>
    <path d="M625.479 190.407C627.432 185.937 627.093 180.723 628.707 176.11C629.571 173.639 630.974 171.41 632.805 169.596C634.637 167.782 636.847 166.432 639.265 165.651C641.682 164.871 644.24 164.681 646.739 165.097C649.239 165.513 651.612 166.524 653.673 168.05C655.749 169.587 657.831 171.747 660.366 171.453C663.095 171.137 665.529 167.976 668.039 169.134C670.82 170.419 670.069 175.594 672.887 176.789C674.37 177.419 676.123 176.45 676.978 175.043C677.727 173.565 678.134 171.927 678.169 170.257C678.558 166.156 678.91 161.815 677.196 158.097C676.476 156.836 675.848 155.522 675.318 154.163C675.018 152.895 674.897 151.588 674.96 150.283C674.945 145.462 674.606 140.433 672.269 136.267C669.676 131.644 664.882 128.688 659.882 127.398C654.881 126.108 649.642 126.306 644.507 126.757C636.02 127.503 627.168 129.102 620.481 134.581C619.572 135.27 618.79 136.123 618.172 137.1C617.585 138.26 617.17 139.505 616.942 140.794C615.496 146.907 613.328 152.811 610.488 158.372C609.121 160.729 608.005 163.233 607.157 165.84C606.448 168.489 606.496 171.508 607.98 173.784C609.189 175.638 611.121 176.626 612.639 178.141C614.143 179.643 614.847 182.531 616.513 183.668C617.968 184.661 619.71 183.96 621.194 185.012C623.098 186.363 623.236 189.325 625.479 190.407Z" fill="#2F2E41"/>
    <path d="M649.008 259.292L651.787 253.522C651.787 253.522 692.543 266.024 700.879 277.564C700.879 277.564 721.257 264.1 732.372 266.024L743.487 267.947L709.215 299.684L665.681 295.837L649.008 259.292Z" fill="#F2F2F2"/>
    <path d="M647.155 253.522L609.178 308.339L663.828 336.229C663.828 336.229 668.937 339.114 672.867 336.229L709.215 318.918L743.487 267.947L709.215 286.22C709.215 286.22 705.51 278.526 698.1 282.373L647.155 253.522Z" fill="#80EFA3"/>
    <path d="M705.51 350.655L712.92 330.459C712.92 330.459 729.593 308.339 720.331 297.761C711.068 287.182 700.879 328.535 700.879 328.535L705.51 350.655Z" fill="#A0616A"/>
    <path d="M620.013 347.432L636.183 333.822C636.183 333.822 661.294 323.373 658.393 309.397C655.493 295.421 626.696 325.885 626.696 325.885L620.013 347.432Z" fill="#A0616A"/>
    <path opacity="0.1" d="M580.001 250.156H579.075C579.075 250.156 564.717 232.364 561.939 256.407C559.16 280.45 549.897 360.272 573.98 363.157C598.063 366.042 615.199 351.136 615.199 351.136C615.199 351.136 632.798 323.246 626.314 323.246C623.177 323.246 614.645 321.783 606.863 322.284C598.561 322.819 591.101 325.247 591.579 322.765C592.505 317.957 605.936 256.888 580.001 250.156Z" fill="black"/>
    <path d="M578.611 231.402L574.906 229.479C574.906 229.479 560.086 232.364 557.307 256.407C554.528 280.45 545.266 360.272 569.349 363.157C593.432 366.042 625.851 359.31 625.851 359.31C625.851 359.31 632.335 322.765 625.851 322.765C619.367 322.765 586.022 327.574 586.948 322.765C587.874 317.957 604.547 238.134 578.611 231.402Z" fill="#575A89"/>
    <path d="M692.079 339.596L702.293 323.342L708.752 350.175L692.079 357.868V339.596Z" fill="#575A89"/>
    <path d="M482.254 107.821C496.066 107.821 507.263 96.1959 507.263 81.8551C507.263 67.5143 496.066 55.8888 482.254 55.8888C468.442 55.8888 457.245 67.5143 457.245 81.8551C457.245 96.1959 468.442 107.821 482.254 107.821Z" fill="#F2F2F2"/>
    <path d="M511.895 275.16H452.614V336.71H511.895V275.16Z" fill="#F2F2F2"/>
    <path d="M723.573 0L738.577 26.9829L753.581 53.9658H723.573H693.564L708.568 26.9829L723.573 0Z" fill="#F2F2F2"/>
    <path d="M985 161.789C984.641 173.301 981.941 182.528 976.9 189.47C971.857 196.413 965.867 199.885 958.929 199.886C953.277 199.886 948.324 196.488 944.069 189.693C939.813 182.898 937.685 172.445 937.685 158.335C937.685 155.216 937.757 152.246 937.9 149.424C938.042 146.602 938.221 143.929 938.436 141.403L942.191 104.754H917.407C913.116 151.095 909.593 178.665 906.839 187.465C904.085 196.265 899.418 200.666 892.838 200.666C889.868 200.59 887.034 199.357 884.899 197.213C883.661 196.073 882.681 194.663 882.032 193.084C881.383 191.504 881.079 189.794 881.143 188.078C881.143 184.663 883.736 179.892 888.922 173.764C894.107 167.637 896.986 162.049 897.559 156.999L903.996 104.754H893.589C890.656 104.772 887.768 105.517 885.167 106.926C882.773 108.068 880.69 109.81 879.105 111.995L874.491 119.124H870.736C874.24 107.837 878.55 99.352 883.665 93.6703C888.778 87.989 894.661 85.1485 901.314 85.1485H983.284V104.754H955.603C954.744 113.666 954.083 122.577 953.618 131.489C953.152 140.401 952.919 149.349 952.921 158.335C952.921 164.426 954.28 169.364 956.998 173.151C959.715 176.939 963.113 178.832 967.19 178.832C969.693 178.832 972.322 177.774 975.076 175.657C976.384 174.705 977.478 173.47 978.283 172.038C979.089 170.605 979.587 169.009 979.743 167.358C979.958 165.726 980.119 164.445 980.226 163.515C980.333 162.588 980.387 162.012 980.387 161.789L985 161.789Z" fill="#80EFA3"/>
    <path opacity="0.1" d="M985 161.789C984.641 173.301 981.941 182.528 976.9 189.47C971.857 196.413 965.867 199.885 958.929 199.886C953.277 199.886 948.324 196.488 944.069 189.693C939.813 182.898 937.685 172.445 937.685 158.335C937.685 155.216 937.757 152.246 937.9 149.424C938.042 146.602 938.221 143.929 938.436 141.403L942.191 104.754H917.407C913.116 151.095 909.593 178.665 906.839 187.465C904.085 196.265 899.418 200.666 892.838 200.666C889.868 200.59 887.034 199.357 884.899 197.213C883.661 196.073 882.681 194.663 882.032 193.084C881.383 191.504 881.079 189.794 881.143 188.078C881.143 184.663 883.736 179.892 888.922 173.764C894.107 167.637 896.986 162.049 897.559 156.999L903.996 104.754H893.589C890.656 104.772 887.768 105.517 885.167 106.926C882.773 108.068 880.69 109.81 879.105 111.995L874.491 119.124H870.736C874.24 107.837 878.55 99.352 883.665 93.6703C888.778 87.989 894.661 85.1485 901.314 85.1485H983.284V104.754H955.603C954.744 113.666 954.083 122.577 953.618 131.489C953.152 140.401 952.919 149.349 952.921 158.335C952.921 164.426 954.28 169.364 956.998 173.151C959.715 176.939 963.113 178.832 967.19 178.832C969.693 178.832 972.322 177.774 975.076 175.657C976.384 174.705 977.478 173.47 978.283 172.038C979.089 170.605 979.587 169.009 979.743 167.358C979.958 165.726 980.119 164.445 980.226 163.515C980.333 162.588 980.387 162.012 980.387 161.789L985 161.789Z" fill="black"/>
    <path d="M985 158.308C984.641 169.82 981.941 179.047 976.9 185.99C971.857 192.933 965.867 196.405 958.929 196.405C953.277 196.405 948.324 193.008 944.069 186.213C939.813 179.418 937.685 168.965 937.685 154.855C937.685 151.736 937.757 148.765 937.9 145.943C938.042 143.122 938.221 140.448 938.436 137.923L942.191 101.274H917.407C913.116 147.614 909.593 175.185 906.839 183.985C904.085 192.785 899.418 197.185 892.838 197.185C889.868 197.11 887.034 195.877 884.899 193.732C883.661 192.593 882.681 191.183 882.032 189.603C881.383 188.023 881.079 186.314 881.143 184.597C881.143 181.183 883.736 176.411 888.922 170.283C894.107 164.156 896.986 158.568 897.559 153.518L903.996 101.274H893.589C890.656 101.292 887.768 102.037 885.167 103.446C882.773 104.587 880.69 106.329 879.105 108.514L874.491 115.644H870.736C874.24 104.356 878.55 95.8715 883.665 90.1898C888.778 84.5086 894.661 81.668 901.314 81.6681H983.284V101.274H955.603C954.744 110.185 954.083 119.097 953.618 128.009C953.152 136.92 952.919 145.869 952.921 154.855C952.921 160.945 954.28 165.884 956.998 169.671C959.715 173.458 963.113 175.352 967.19 175.352C969.693 175.352 972.322 174.293 975.076 172.177C976.384 171.224 977.478 169.99 978.283 168.557C979.089 167.125 979.587 165.529 979.743 163.878C979.958 162.245 980.119 160.964 980.226 160.035C980.333 159.107 980.387 158.532 980.387 158.308H985Z" fill="#80EFA3"/>
  </g>
</svg>