<svg width="789" height="515" viewBox="0 0 789 515" fill="none" xmlns="http://www.w3.org/2000/svg">
<g clip-path="url(#clip0_104_193)">
<path d="M604.077 509.176C593.976 499.857 587.84 485.136 589.449 470.805C591.058 456.474 601.024 443.3 613.952 440.257C626.879 437.213 641.616 445.638 645.543 459.425C647.703 432.844 650.194 405.149 663.138 382.512C674.859 362.016 695.159 347.35 717.161 344.726C739.162 342.102 762.326 352.012 776.048 370.971C789.769 389.93 793.129 417.492 783.519 439.258C776.439 455.293 763.397 467.226 749.731 476.934C705.572 508.041 652.61 520.69 600.588 512.556L604.077 509.176Z" fill="#F2F2F2"/>
<path d="M754.291 352.561C736.137 368.704 719.483 386.76 704.569 406.465C681.23 437.199 662.343 471.658 648.567 508.64C647.558 511.338 651.571 512.512 652.568 509.844C675.108 449.74 711.091 396.765 757.225 355.765C759.297 353.923 756.346 350.734 754.291 352.561Z" fill="white"/>
<path d="M253.992 506.644C267.866 493.845 276.293 473.626 274.083 453.942C271.873 434.258 258.185 416.163 240.429 411.983C222.673 407.803 202.432 419.374 197.039 438.311C194.071 401.801 190.651 363.762 172.872 332.671C156.773 304.519 128.89 284.375 98.6714 280.772C68.4526 277.168 36.6361 290.779 17.7897 316.819C-1.05662 342.859 -5.67107 380.716 7.52843 410.612C17.252 432.636 35.1664 449.026 53.9361 462.36C113.818 504.901 188.102 522.643 258.783 511.286" fill="#F2F2F2"/>
<path d="M47.6726 291.533C72.6068 313.706 95.4813 338.505 115.965 365.571C136.453 392.609 154.489 421.753 169.822 452.593C178.393 469.893 186.092 487.691 192.885 505.908C194.27 509.613 188.759 511.226 187.389 507.562C175.357 475.447 160.47 444.696 142.943 415.751C125.501 386.911 105.538 359.986 83.3338 335.355C70.7751 321.43 57.5246 308.27 43.6423 295.933C40.7968 293.404 44.8506 289.024 47.6726 291.533Z" fill="white"/>
<path d="M566.357 513.873H235.34V143.072C235.34 64.1819 294.127 0 366.386 0H435.311C507.57 0 566.357 64.1819 566.357 143.072V513.873Z" fill="#F2F2F2"/>
<path d="M497.433 513.873H235.34V143.072C235.267 112.843 244.035 83.3784 260.366 58.9673C260.968 58.0715 261.569 57.1872 262.188 56.3126C270.087 45.0016 279.488 35.0401 290.079 26.757C290.677 26.2817 291.278 25.8147 291.887 25.3477C300.75 18.6519 310.336 13.1783 320.429 9.0513C321.029 8.80328 321.639 8.55478 322.249 8.31643C331.377 4.75999 340.839 2.32385 350.461 1.05298C351.058 0.964017 351.67 0.894403 352.282 0.824787C361.659 -0.269761 371.115 -0.269761 380.492 0.824787C381.102 0.894403 381.715 0.964008 382.318 1.05393C391.938 2.32488 401.398 4.76073 410.523 8.31647C411.134 8.55483 411.744 8.80331 412.345 9.05181C422.313 13.1267 431.787 18.5187 440.555 25.1074C441.164 25.5643 441.774 26.0313 442.375 26.4983C448.312 31.1249 453.888 36.2792 459.047 41.9086C463.184 46.4239 467.039 51.2371 470.587 56.3156C471.204 57.1873 471.804 58.0715 472.405 58.9659C488.737 83.3772 497.505 112.843 497.433 143.072V513.873Z" fill="#CCCCCC"/>
<path d="M476.121 348.027C484.135 348.027 490.631 340.935 490.631 332.186C490.631 323.436 484.135 316.344 476.121 316.344C468.107 316.344 461.61 323.436 461.61 332.186C461.61 340.935 468.107 348.027 476.121 348.027Z" fill="#FFF388"/>
<path d="M539.24 502.767H528.121L522.831 455.946L539.242 455.947L539.24 502.767Z" fill="#FFB8B8"/>
<path d="M520.179 499.298H541.622V514.038H506.678C506.678 512.102 507.028 510.185 507.706 508.397C508.385 506.609 509.379 504.984 510.633 503.615C511.886 502.246 513.375 501.161 515.013 500.42C516.651 499.679 518.406 499.298 520.179 499.298Z" fill="#2F2E41"/>
<path d="M594.56 502.767H583.442L578.152 455.946L594.562 455.947L594.56 502.767Z" fill="#FFB8B8"/>
<path d="M575.5 499.298H596.942V514.038H561.999C561.999 512.102 562.348 510.185 563.027 508.397C563.705 506.609 564.7 504.984 565.953 503.615C567.207 502.246 568.695 501.161 570.333 500.42C571.971 499.679 573.727 499.298 575.5 499.298Z" fill="#2F2E41"/>
<path d="M483.464 335.324C482.665 334.037 482.133 332.575 481.907 331.039C481.68 329.504 481.765 327.934 482.155 326.438C482.545 324.942 483.231 323.558 484.164 322.383C485.097 321.208 486.254 320.271 487.555 319.637L525.351 205.905L543.948 216.986L500.794 325.673C501.624 328.129 501.601 330.832 500.727 333.27C499.854 335.708 498.192 337.712 496.056 338.902C493.92 340.091 491.458 340.384 489.137 339.725C486.817 339.065 484.798 337.5 483.464 335.324Z" fill="#FFB8B8"/>
<path d="M588.881 356.695C587.645 355.921 586.58 354.861 585.76 353.59C584.94 352.318 584.386 350.866 584.136 349.335C583.886 347.804 583.946 346.232 584.312 344.73C584.679 343.227 585.343 341.83 586.257 340.638L574.549 220.329L595.713 221.385L600.58 339.725C602.312 341.534 603.377 343.975 603.571 346.585C603.765 349.194 603.076 351.791 601.634 353.883C600.192 355.974 598.098 357.416 595.747 357.934C593.397 358.452 590.954 358.011 588.881 356.695Z" fill="#FFB8B8"/>
<path d="M555.117 184.839C567.418 184.839 577.391 173.952 577.391 160.521C577.391 147.09 567.418 136.203 555.117 136.203C542.815 136.203 532.842 147.09 532.842 160.521C532.842 173.952 542.815 184.839 555.117 184.839Z" fill="#FFB8B8"/>
<path d="M588.739 329.333H521.586L521.667 328.762C521.787 327.909 533.635 243.177 524.897 215.457C524.02 212.733 524.097 209.751 525.113 207.085C526.13 204.419 528.013 202.258 530.401 201.017C542.891 194.596 566.865 186.689 587.101 205.878C590.078 208.748 592.403 212.335 593.892 216.356C595.381 220.376 595.993 224.72 595.679 229.043L588.739 329.333Z" fill="#FFF388"/>
<path d="M534.483 255.699L504.251 249.003L518.422 212.339C519.27 208.788 521.374 205.749 524.271 203.889C527.169 202.029 530.624 201.499 533.878 202.416C537.133 203.334 539.922 205.623 541.632 208.782C543.343 211.941 543.836 215.712 543.004 219.267L534.483 255.699Z" fill="#FFF388"/>
<path d="M573.204 268.133L571.387 222.645C570.009 214.094 574.492 206.011 581.387 204.69C588.285 203.373 595.02 209.304 596.404 217.917L603.236 260.421L573.204 268.133Z" fill="#FFF388"/>
<path d="M586.505 323.887C597.31 368.815 598.489 425.938 595.574 488.247L581.063 486.267L554.763 367.452L540.253 488.247L523.929 487.257C519.052 421.879 514.304 365.754 522.115 328.838L586.505 323.887Z" fill="#2F2E41"/>
<path d="M569.793 179.315C565.638 184.147 557.921 181.553 557.379 174.951C557.337 174.439 557.34 173.923 557.389 173.411C557.668 170.487 559.216 167.832 558.845 164.744C558.761 163.975 558.499 163.243 558.083 162.616C554.772 157.775 546.999 164.781 543.874 160.399C541.957 157.712 544.21 153.481 542.739 150.477C540.799 146.513 535.05 148.469 531.445 146.298C527.434 143.883 527.674 137.164 530.314 133.077C533.534 128.093 539.18 125.434 544.755 125.051C550.33 124.667 555.867 126.313 561.072 128.527C566.986 131.044 572.851 134.521 576.49 140.198C580.916 147.103 581.342 156.385 579.128 164.458C577.782 169.369 573.187 175.369 569.793 179.315Z" fill="#2F2E41"/>
<path d="M761.776 514.51H92.2201C91.9343 514.509 91.6604 514.384 91.4586 514.163C91.2568 513.942 91.1434 513.643 91.1434 513.331C91.1434 513.019 91.2568 512.719 91.4586 512.498C91.6604 512.278 91.9343 512.153 92.2201 512.152H761.776C762.062 512.153 762.336 512.278 762.538 512.498C762.74 512.719 762.853 513.019 762.853 513.331C762.853 513.643 762.74 513.942 762.538 514.163C762.336 514.384 762.062 514.509 761.776 514.51Z" fill="#3F3D56"/>
<path d="M425.334 406.445H307.438C305.885 406.454 304.393 405.79 303.288 404.599C302.182 403.409 301.555 401.788 301.543 400.093V112.79C301.555 111.095 302.182 109.474 303.288 108.283C304.393 107.092 305.885 106.429 307.438 106.438H425.334C426.887 106.429 428.38 107.092 429.485 108.283C430.59 109.474 431.217 111.095 431.229 112.79V400.093C431.217 401.788 430.59 403.409 429.485 404.599C428.38 405.79 426.887 406.454 425.334 406.445Z" fill="white"/>
<path d="M431.229 199.4H301.543V201.38H431.229V199.4Z" fill="#CCCCCC"/>
<path d="M431.683 312.383H301.997V314.363H431.683V312.383Z" fill="#CCCCCC"/>
<path d="M344.167 106.438H342.353V407.435H344.167V106.438Z" fill="#CCCCCC"/>
<path d="M389.512 106.438H387.698V407.435H389.512V106.438Z" fill="#CCCCCC"/>
</g>
<defs>
<clipPath id="clip0_104_193">
<rect width="789" height="515" fill="white"/>
</clipPath>
</defs>
</svg>
